<?xml version="1.0" encoding="utf-8"?>
<!-- Generator: Adobe Illustrator 27.2.0, SVG Export Plug-In . SVG Version: 6.00 Build 0)  -->
<svg version="1.1" id="Layer_1" xmlns="http://www.w3.org/2000/svg" xmlns:xlink="http://www.w3.org/1999/xlink" x="0px" y="0px"
	 viewBox="0 0 1200 700" style="enable-background:new 0 0 1200 700;" xml:space="preserve">
<style type="text/css">
	.st0{fill:#F5F5F5;}
	.st1{fill:none;stroke:#EBEBEB;stroke-miterlimit:10;}
	.st2{fill:none;stroke:#C2C2C2;stroke-width:0.9;}
	.st3{clip-path:url(#SVGID_00000013177914728781119250000009410013144520689285_);}
	.st4{fill:none;stroke:#EBEBEB;stroke-width:2.19;}
	.st5{fill:#EBEBEB;}
	.st6{fill:#FFFFFF;}
	.st7{clip-path:url(#SVGID_00000006679194191671829030000003214556580748172694_);}
	.st8{fill:none;stroke:#C2C2C2;}
	.st9{fill:none;stroke:#000000;stroke-width:5;stroke-miterlimit:10;}
	.st10{fill:#00D2C0;}
	.st11{fill:#A3106D;}
</style>
<g>
	<path class="st0" d="M32.9,11.2h1138.2c8.5,0,15.4,6.6,15.4,14.7v645.3c0,8.1-6.9,14.7-15.4,14.7H32.9c-8.5,0-15.4-6.6-15.4-14.7
		V25.8C17.5,17.7,24.4,11.2,32.9,11.2z"/>
	<rect x="1067.4" y="51" class="st1" width="60.1" height="60.1"/>
	<path class="st2" d="M188.3,698.8c-16.7-0.5-29.7-14.5-29.2-31.1c0.5-15.9,13.3-28.7,29.2-29.2V698.8z"/>
	<g>
		<defs>
			<rect id="SVGID_1_" x="1023.7" y="568.4" width="162.7" height="56.2"/>
		</defs>
		<clipPath id="SVGID_00000047052928446606828840000010202599746991550890_">
			<use xlink:href="#SVGID_1_"  style="overflow:visible;"/>
		</clipPath>
		<g style="clip-path:url(#SVGID_00000047052928446606828840000010202599746991550890_);">
			<g id="mask0_1501_9274">
				<line class="st4" x1="950.4" y1="627" x2="1014.7" y2="562.7"/>
				<line class="st4" x1="1088.1" y1="627" x2="1152.4" y2="562.7"/>
				<line class="st4" x1="935.1" y1="627" x2="999.4" y2="562.7"/>
				<line class="st4" x1="1210.5" y1="627" x2="1274.8" y2="562.7"/>
				<line class="st4" x1="1072.8" y1="627" x2="1137.1" y2="562.7"/>
				<line class="st4" x1="919.8" y1="627" x2="984" y2="562.7"/>
				<line class="st4" x1="1195.2" y1="627" x2="1259.5" y2="562.7"/>
				<line class="st4" x1="1057.5" y1="627" x2="1121.8" y2="562.7"/>
				<line class="st4" x1="904.5" y1="627" x2="968.7" y2="562.7"/>
				<line class="st4" x1="1179.9" y1="627" x2="1244.2" y2="562.7"/>
				<line class="st4" x1="1042.2" y1="627" x2="1106.4" y2="562.7"/>
				<line class="st4" x1="889.2" y1="627" x2="953.4" y2="562.7"/>
				<line class="st4" x1="1164.6" y1="627" x2="1228.9" y2="562.7"/>
				<line class="st4" x1="1026.9" y1="627" x2="1091.1" y2="562.7"/>
				<line class="st4" x1="873.9" y1="627" x2="938.1" y2="562.7"/>
				<line class="st4" x1="1149.3" y1="627" x2="1213.6" y2="562.7"/>
				<line class="st4" x1="1011.6" y1="627" x2="1075.8" y2="562.7"/>
				<line class="st4" x1="858.6" y1="627" x2="922.8" y2="562.7"/>
				<line class="st4" x1="1134" y1="627" x2="1198.3" y2="562.7"/>
				<line class="st4" x1="996.3" y1="627" x2="1060.5" y2="562.7"/>
				<line class="st4" x1="843.3" y1="627" x2="907.5" y2="562.7"/>
				<line class="st4" x1="1118.7" y1="627" x2="1183" y2="562.7"/>
				<line class="st4" x1="981" y1="627" x2="1045.2" y2="562.7"/>
				<line class="st4" x1="828" y1="627" x2="892.2" y2="562.7"/>
				<line class="st4" x1="1103.4" y1="627" x2="1167.7" y2="562.7"/>
				<line class="st4" x1="965.7" y1="627" x2="1029.9" y2="562.7"/>
			</g>
		</g>
	</g>
	<circle class="st5" cx="28.3" cy="444.2" r="2.5"/>
	<circle class="st5" cx="53" cy="444.2" r="2.5"/>
	<circle class="st5" cx="3.6" cy="444.2" r="2.5"/>
	<circle class="st5" cx="77.7" cy="444.2" r="2.5"/>
	<circle class="st5" cx="102.3" cy="444.2" r="2.5"/>
	<circle class="st5" cx="28.3" cy="518.3" r="2.5"/>
	<circle class="st5" cx="53" cy="518.3" r="2.5"/>
	<circle class="st5" cx="3.6" cy="518.3" r="2.5"/>
	<circle class="st5" cx="77.7" cy="518.3" r="2.5"/>
	<circle class="st5" cx="102.3" cy="518.3" r="2.5"/>
	<circle class="st5" cx="28.3" cy="468.9" r="2.5"/>
	<circle class="st5" cx="53" cy="468.9" r="2.5"/>
	<circle class="st5" cx="3.6" cy="468.9" r="2.5"/>
	<circle class="st5" cx="77.7" cy="468.9" r="2.5"/>
	<circle class="st5" cx="102.3" cy="468.9" r="2.5"/>
	<circle class="st5" cx="28.3" cy="543" r="2.5"/>
	<circle class="st5" cx="53" cy="543" r="2.5"/>
	<circle class="st5" cx="3.6" cy="543" r="2.5"/>
	<circle class="st5" cx="77.7" cy="543" r="2.5"/>
	<circle class="st5" cx="102.3" cy="543" r="2.5"/>
	<circle class="st5" cx="28.3" cy="493.6" r="2.5"/>
	<circle class="st5" cx="53" cy="493.6" r="2.5"/>
	<circle class="st5" cx="3.6" cy="493.6" r="2.5"/>
	<circle class="st5" cx="77.7" cy="493.6" r="2.5"/>
	<circle class="st5" cx="102.3" cy="493.6" r="2.5"/>
	<circle class="st6" cx="1121.2" cy="456.3" r="8.4"/>
	<circle class="st6" cx="1156.1" cy="456.3" r="8.4"/>
	<circle class="st6" cx="1121.2" cy="566.8" r="8.4"/>
	<circle class="st6" cx="1156.1" cy="566.8" r="8.4"/>
	<circle class="st6" cx="1121.2" cy="493.1" r="8.4"/>
	<circle class="st6" cx="1156.1" cy="493.1" r="8.4"/>
	<circle class="st6" cx="1121.2" cy="530" r="8.4"/>
	<circle class="st6" cx="1156.1" cy="530" r="8.4"/>
	<g>
		<defs>
			<rect id="SVGID_00000044859293908757372060000013251765571979676295_" x="17.5" y="198.4" width="69.1" height="206.5"/>
		</defs>
		<clipPath id="SVGID_00000038411177320612081420000010838203841534572938_">
			<use xlink:href="#SVGID_00000044859293908757372060000013251765571979676295_"  style="overflow:visible;"/>
		</clipPath>
		<g style="clip-path:url(#SVGID_00000038411177320612081420000010838203841534572938_);">
			<circle class="st5" cx="-21.1" cy="300.6" r="90.5"/>
		</g>
	</g>
	<path class="st8" d="M1087.5,88.8l-15.1,60.8h-5l15-60.8L1087.5,88.8z"/>
</g>
<path class="st9" d="M371.1,495.9c-67.4-120.4-30.1-272.5,85.5-348"/>
<path class="st9" d="M862.3,373.1C859.3,515.5,743,629.9,600,629.9c-88.4,0.1-170.9-44.4-219.3-118.4"/>
<path class="st9" d="M496.2,126.6c32.8-14.1,68.1-21.4,103.8-21.4c137.8,0,250.8,106.3,261.5,241.3"/>
<g>
	<path class="st10" d="M487,70.1H713c5.4,0,9.8,4.4,9.8,9.8v116.8c0,5.4-4.4,9.8-9.8,9.8H487c-5.4,0-9.8-4.4-9.8-9.8V79.9
		C477.1,74.5,481.5,70.1,487,70.1z"/>
	<g>
		<path d="M570,129.7h-9.4c-0.6-0.1-1.1,0.1-1.6,0.5c-0.4,0.4-0.5,0.9-0.5,1.5v4.5h10v4.2h-10v11h-5.8v-20.9c-0.1-1.5,0.5-2.9,1.6-4
			c1.2-1,2.7-1.5,4.2-1.5c3.9-0.1,7.9,0.1,11.8,0.4L570,129.7z"/>
		<path d="M584.8,143.9h-6.8c0,1,0.5,2,1.2,2.8c1,0.6,2.1,0.8,3.2,0.7c2.3,0,4.7-0.2,7-0.4l0.5,3.5c-2.6,1.1-5.4,1.5-8.2,1.4
			c-3.5,0-6-0.8-7.5-2.3c-1.5-1.5-2.2-4-2.2-7.5c0-3.7,0.7-6.2,2.2-7.7c1.5-1.5,3.9-2.2,7.4-2.2c3.1,0,5.4,0.5,6.8,1.6
			c1.5,1.2,2.2,3,2.1,4.9c0.1,1.4-0.4,2.9-1.3,3.9C587.9,143.5,586.4,144,584.8,143.9z M577.9,140.5h5.3c0.5,0.1,1-0.1,1.4-0.5
			c0.3-0.4,0.4-0.9,0.4-1.4c0.1-0.7-0.2-1.4-0.7-1.8c-0.8-0.4-1.6-0.6-2.5-0.5c-1.1-0.1-2.1,0.2-3,0.9
			C578.2,138.1,577.9,139.3,577.9,140.5z"/>
		<path d="M601.5,136.4v8.9c-0.1,0.5,0.1,1.1,0.5,1.5c0.5,0.3,1,0.5,1.6,0.4h2.4l0.6,3.9c-1.7,0.5-3.5,0.8-5.3,0.8
			c-1.5,0.1-2.9-0.4-4-1.4c-1-1.1-1.5-2.5-1.4-4v-10h-3.3v-3.6l3.3-0.2v-5.2h5.6v5.2h5.2v3.8H601.5z"/>
		<path d="M625.1,146.9l0.5,3.6c-2.3,0.9-4.8,1.3-7.3,1.3c-3.4,0-5.9-0.7-7.3-2.2s-2.1-4-2.1-7.6c0-3.6,0.7-6.2,2.1-7.7
			c1.4-1.5,3.9-2.2,7.3-2.2c2.4-0.1,4.7,0.3,6.9,1.2l-0.6,3.5c-2.7-0.1-4.5-0.1-5.4-0.1c-1.7,0-2.9,0.4-3.6,1.1
			c-0.6,0.7-1,2.1-1,4.2c0,2.1,0.3,3.4,1,4.2s1.8,1.1,3.6,1.1C621.3,147.3,623.2,147.2,625.1,146.9z"/>
		<path d="M634.7,124.8v6.5c0,1.3-0.1,2.6-0.3,3.9c2.1-1.9,4.8-3,7.7-3.1c1.4-0.1,2.8,0.4,3.9,1.3c1,1.1,1.4,2.5,1.3,3.9v14.1h-5.6
			V139c0.1-0.6-0.1-1.2-0.4-1.7c-0.4-0.4-0.9-0.5-1.4-0.5c-1.8,0.2-3.6,0.7-5.2,1.7v12.8H629v-26.6L634.7,124.8z"/>
	</g>
</g>
<path class="st11" d="M761.7,362.3h226.1c5.4,0,9.8,4.4,9.8,9.8V489c0,5.4-4.4,9.8-9.8,9.8H761.7c-5.4,0-9.8-4.4-9.8-9.8V372.1
	C751.9,366.7,756.3,362.3,761.7,362.3z"/>
<g>
	<path class="st6" d="M810.6,443.6v-26.2c3.6-0.2,7-0.3,10.2-0.3c4.2,0,7.1,1,8.7,2.9c1.6,1.9,2.5,5.4,2.5,10.6
		c0,5.1-0.8,8.6-2.5,10.6c-1.6,1.9-4.5,2.9-8.7,2.9C817.6,443.9,814.2,443.8,810.6,443.6z M816.4,421.6v17.7c0.4,0,1.1,0,2.1,0
		c1,0,1.7,0,2.3,0c2,0,3.3-0.6,4-1.9c0.7-1.2,1.1-3.6,1.1-7c0-3.4-0.4-5.8-1.1-7c-0.7-1.3-2.1-1.9-4-1.9L816.4,421.6z"/>
	<path class="st6" d="M848.1,436.1h-6.8c0,1,0.5,2,1.2,2.8c1,0.6,2.1,0.8,3.2,0.7c2.3,0,4.7-0.2,7-0.4l0.5,3.5
		c-2.6,1.1-5.4,1.5-8.2,1.4c-3.5,0-6-0.8-7.5-2.3c-1.5-1.5-2.2-4-2.2-7.5c0-3.7,0.7-6.2,2.2-7.7c1.5-1.5,3.9-2.2,7.4-2.2
		c3.1,0,5.4,0.5,6.8,1.6c1.5,1.2,2.2,3,2.1,4.9c0.1,1.4-0.4,2.9-1.3,3.9C851.2,435.8,849.6,436.3,848.1,436.1z M841.2,432.7h5.3
		c0.5,0.1,1-0.1,1.4-0.5c0.3-0.4,0.4-0.9,0.4-1.4c0.1-0.7-0.2-1.4-0.7-1.8c-0.8-0.4-1.6-0.6-2.5-0.5c-1.1-0.1-2.1,0.2-3,0.9
		C841.6,429.9,841.3,431,841.2,432.7L841.2,432.7z"/>
	<path class="st6" d="M872.8,439.2l0.5,3.6c-2.3,0.9-4.8,1.3-7.3,1.3c-3.4,0-5.9-0.7-7.3-2.2c-1.4-1.5-2.1-4-2.1-7.6
		c0-3.6,0.7-6.2,2.1-7.7c1.4-1.5,3.9-2.2,7.3-2.2c2.4-0.1,4.7,0.3,6.9,1.2l-0.6,3.5c-2.7-0.1-4.5-0.1-5.4-0.1
		c-1.7,0-2.9,0.4-3.6,1.1c-0.6,0.7-1,2.1-1,4.2c0,2.1,0.3,3.4,1,4.2s1.8,1.1,3.6,1.1C868.9,439.5,870.9,439.4,872.8,439.2z"/>
	<path class="st6" d="M885.3,424.3c3.5,0,6,0.8,7.4,2.3s2.2,4.1,2.2,7.7c0,3.6-0.7,6.1-2.2,7.6c-1.5,1.5-3.9,2.2-7.4,2.2
		c-3.5,0-6-0.7-7.5-2.2c-1.5-1.5-2.2-4-2.2-7.6c0-3.6,0.7-6.2,2.2-7.7C879.3,425.1,881.7,424.3,885.3,424.3z M885.3,428.6
		c-1.5,0-2.5,0.4-3,1.1c-0.5,0.8-0.8,2.3-0.8,4.6c0,2.2,0.3,3.7,0.8,4.5c0.5,0.8,1.5,1.1,3,1.1c1.1,0.1,2.2-0.3,2.9-1.1
		c0.5-0.8,0.8-2.3,0.8-4.5c0-2.3-0.3-3.8-0.8-4.5S886.7,428.6,885.3,428.6z"/>
	<path class="st6" d="M916.7,417v26.6h-4.4l-0.5-2.7c-1.8,2.1-4.4,3.3-7.1,3.2c-2,0.2-4-0.8-5.1-2.5c-1.1-1.7-1.6-4.2-1.6-7.5
		c0-3.6,0.6-6.1,1.7-7.6c1.2-1.4,3-2.2,5.4-2.2c2.1-0.1,4.3,0.5,6.1,1.7c-0.1-1.4-0.2-2.7-0.2-3.9V417L916.7,417z M911,437.9v-8.7
		c-1.3-0.4-2.6-0.7-4-0.7c-1-0.1-2,0.3-2.6,1.1c-0.5,0.7-0.7,2.2-0.7,4.4c0,2.2,0.2,3.6,0.7,4.3c0.6,0.8,1.5,1.2,2.4,1.1
		c0.7,0,1.4-0.1,2-0.3C909.6,438.8,910.4,438.4,911,437.9L911,437.9z"/>
	<path class="st6" d="M933.2,436.1h-6.8c0,1,0.5,2,1.2,2.8c1,0.6,2.1,0.8,3.2,0.7c2.3,0,4.7-0.2,7-0.4l0.5,3.5
		c-2.6,1.1-5.4,1.5-8.2,1.4c-3.5,0-6-0.8-7.5-2.3c-1.5-1.5-2.2-4-2.2-7.5c0-3.7,0.7-6.2,2.2-7.7c1.5-1.5,3.9-2.2,7.4-2.2
		c3.1,0,5.4,0.5,6.8,1.6c1.5,1.2,2.2,3,2.1,4.9c0.1,1.4-0.4,2.9-1.3,3.9C936.3,435.8,934.8,436.3,933.2,436.1z M926.3,432.7h5.3
		c0.5,0.1,1-0.1,1.4-0.5c0.3-0.4,0.4-0.9,0.4-1.4c0.1-0.7-0.2-1.4-0.7-1.8c-0.8-0.4-1.6-0.6-2.5-0.5c-1.1-0.1-2.1,0.2-3,0.9
		C926.7,429.9,926.4,431,926.3,432.7L926.3,432.7z"/>
</g>
<path d="M212.2,362.3h226.1c5.4,0,9.8,4.4,9.8,9.8V489c0,5.4-4.4,9.8-9.8,9.8H212.2c-5.4,0-9.8-4.4-9.8-9.8V372.1
	C202.3,366.7,206.7,362.3,212.2,362.3z"/>
<g>
	<path class="st6" d="M273.4,439l0.3,4.3c-2.4,0.3-6.4,0.4-12.2,0.4c-1.5,0.1-3-0.4-4.2-1.4c-1.1-1-1.6-2.4-1.6-3.9v-15.9
		c0-1.5,0.5-2.9,1.6-3.9c1.2-1,2.7-1.5,4.2-1.4c5.7,0,9.8,0.1,12.2,0.4l-0.3,4.3h-10.1c-0.5,0-1,0.1-1.4,0.5c-0.3,0.4-0.5,1-0.4,1.5
		v4H272v4.2h-10.4v5.1c-0.1,0.5,0.1,1.1,0.4,1.5c0.4,0.3,0.9,0.5,1.4,0.5L273.4,439z"/>
	<path class="st6" d="M286,435.6h-0.2l-4.4,7.9h-5.8l5.8-9.6l-5.4-9.1h5.7l4,7.2h0.4l4-7.2h5.7l-5.4,9.1l5.8,9.6h-5.8L286,435.6z"/>
	<path class="st6" d="M310.4,436h-6.8c0,1,0.5,2,1.2,2.8c1,0.6,2.1,0.8,3.2,0.7c2.3,0,4.7-0.2,7-0.4l0.5,3.5
		c-2.6,1.1-5.4,1.5-8.2,1.4c-3.5,0-6-0.8-7.5-2.3c-1.5-1.5-2.2-4-2.2-7.5c0-3.7,0.7-6.2,2.2-7.7c1.5-1.5,3.9-2.2,7.4-2.2
		c3.1,0,5.4,0.5,6.8,1.6c1.5,1.2,2.2,3,2.1,4.9c0.1,1.4-0.4,2.9-1.4,3.9C313.5,435.7,312,436.1,310.4,436z M303.5,432.6h5.3
		c0.5,0.1,1-0.1,1.4-0.5c0.3-0.4,0.4-0.9,0.4-1.4c0.1-0.7-0.2-1.4-0.7-1.8c-0.8-0.4-1.6-0.6-2.5-0.5c-1.1-0.1-2.1,0.2-3,0.9
		C303.9,429.7,303.6,430.9,303.5,432.6z"/>
	<path class="st6" d="M335.1,439l0.5,3.6c-2.3,0.9-4.8,1.3-7.3,1.3c-3.4,0-5.9-0.7-7.3-2.2c-1.4-1.5-2.1-4-2.1-7.6
		c0-3.6,0.7-6.2,2.1-7.7c1.4-1.5,3.9-2.2,7.3-2.2c2.4-0.1,4.7,0.3,6.9,1.2l-0.6,3.5c-2.7-0.1-4.5-0.1-5.4-0.1
		c-1.7,0-2.9,0.4-3.6,1.1c-0.6,0.7-1,2.1-1,4.2c0,2.1,0.3,3.4,1,4.2s1.8,1.1,3.6,1.1C331.3,439.4,333.2,439.3,335.1,439z"/>
	<path class="st6" d="M356.8,424.7v18.7h-4.4l-0.4-2.6c-2.2,1.9-4.9,3-7.8,3.1c-3.5,0-5.3-1.7-5.3-5.2v-14h5.6v12.3
		c-0.1,0.6,0.1,1.2,0.4,1.7c0.4,0.4,1,0.6,1.6,0.5c1.7-0.2,3.2-0.7,4.7-1.6v-13H356.8z"/>
	<path class="st6" d="M368.7,428.5v8.9c-0.1,0.5,0.1,1.1,0.5,1.5c0.5,0.3,1,0.5,1.6,0.4h2.4l0.6,3.9c-1.7,0.5-3.5,0.8-5.3,0.8
		c-1.5,0.1-2.9-0.4-4-1.4c-1-1.1-1.5-2.5-1.4-4v-10h-3.3v-3.6l3.3-0.2v-5.2h5.6v5.2h5.2v3.8L368.7,428.5z"/>
	<path class="st6" d="M389,436h-6.8c0,1,0.5,2,1.2,2.8c1,0.6,2.1,0.8,3.2,0.7c2.3,0,4.7-0.2,7-0.4l0.5,3.5c-2.6,1.1-5.4,1.5-8.2,1.4
		c-3.5,0-6-0.8-7.5-2.3c-1.5-1.5-2.2-4-2.2-7.5c0-3.7,0.7-6.2,2.2-7.7c1.5-1.5,3.9-2.2,7.4-2.2c3.1,0,5.4,0.5,6.8,1.6
		c1.5,1.2,2.2,3,2.1,4.9c0.1,1.4-0.4,2.9-1.4,3.9C392.1,435.7,390.5,436.1,389,436z M382.1,432.6h5.3c0.5,0.1,1-0.1,1.4-0.5
		c0.3-0.4,0.4-0.9,0.4-1.4c0.1-0.7-0.2-1.4-0.7-1.8c-0.8-0.4-1.6-0.6-2.5-0.5c-1.1-0.1-2.1,0.2-3,0.9
		C382.5,429.7,382.2,430.9,382.1,432.6z"/>
</g>
<polygon points="439.6,160.8 449.3,174.4 456.3,159.2 463.3,144 446.6,145.5 429.9,147.1 "/>
<polygon points="393.1,529.6 407.1,520.3 392.1,512.9 377.1,505.4 378.1,522.2 379.2,538.9 "/>
<polygon points="860.2,328.3 843.5,329.6 853,343.4 862.5,357.2 869.7,342 876.9,326.9 "/>
</svg>
